<svg xmlns="http://www.w3.org/2000/svg" xml:space="preserve" style="fill-rule:evenodd;clip-rule:evenodd;stroke-linejoin:round;stroke-miterlimit:2" viewBox="0 0 196 72"><path d="M330.919-161.636H716.46v107.704H330.919z" style="fill:none" transform="matrix(.50754 0 0 .65436 -167.955 106.504)"/><path d="M275.732 3.459h-12.5v-25h25v12.5h-12.5v12.5Zm-12.5 0v12.5h-12.5v-12.5h12.5Zm12.5 25h12.5v12.5h-25v-25h12.5v12.5Z" style="fill:#c9f702;fill-rule:nonzero" transform="translate(-251.96 26.046) scale(1.02249)"/><path d="M313.232 3.459v-12.5h-12.5v-12.5h25v25h-12.5Zm12.5 0h12.5v12.5h-12.5v-12.5Zm-12.5 25v-12.5h12.5v25h-25v-12.5h12.5Z" style="fill:#c9f702;fill-rule:nonzero" transform="translate(-254.3 26.046) scale(1.02249)"/><path d="M141.424 339.226c-.389.914-.933 1.561-1.633 1.94s-1.517.569-2.45.569a6.179 6.179 0 0 1-2.465-.496 5.844 5.844 0 0 1-2.027-1.459c-.583-.641-1.045-1.419-1.385-2.333-.341-.914-.511-1.954-.511-3.121v-.466c0-1.148.166-2.178.496-3.092.331-.914.778-1.692 1.342-2.333a5.781 5.781 0 0 1 1.969-1.473 5.73 5.73 0 0 1 2.406-.511c1.03 0 1.862.175 2.494.525.632.35 1.132.895 1.502 1.634h.525v-1.75h3.675v10.091c0 .584.262.875.787.875h.554v3.5h-2.508c-.661 0-1.201-.194-1.619-.583-.418-.389-.627-.895-.627-1.517h-.525Zm-3.266-.991c1.069 0 1.925-.355 2.566-1.065.642-.71.963-1.677.963-2.902v-.35c0-1.225-.321-2.192-.963-2.902-.641-.71-1.497-1.065-2.566-1.065-1.07 0-1.925.355-2.567 1.065-.642.71-.963 1.677-.963 2.902v.35c0 1.225.321 2.192.963 2.902.642.71 1.497 1.065 2.567 1.065ZM152.828 347.16h-3.675v-20.3h3.675v2.1h.525a4.281 4.281 0 0 1 1.692-1.853c.739-.437 1.682-.656 2.829-.656.856 0 1.668.166 2.436.496a5.783 5.783 0 0 1 2.012 1.444c.574.632 1.031 1.405 1.371 2.319.34.913.51 1.954.51 3.12v.525c0 1.187-.165 2.237-.495 3.15-.331.914-.778 1.687-1.342 2.319a5.482 5.482 0 0 1-1.998 1.429 6.4 6.4 0 0 1-2.494.482c-.661 0-1.235-.068-1.721-.205a4.556 4.556 0 0 1-1.268-.554c-.36-.233-.662-.5-.905-.802a5.89 5.89 0 0 1-.627-.948h-.525v7.934Zm3.85-8.925c1.148 0 2.076-.355 2.786-1.065.709-.71 1.064-1.677 1.064-2.902v-.35c0-1.225-.355-2.192-1.064-2.902-.71-.71-1.638-1.065-2.786-1.065-1.147 0-2.075.365-2.785 1.094-.71.729-1.065 1.687-1.065 2.873v.35c0 1.186.355 2.144 1.065 2.873.71.729 1.638 1.094 2.785 1.094ZM168.024 337.826h4.9v-7.466h-4.55v-3.5h8.225v10.966h4.2v3.5h-12.775v-3.5Zm9.479-15.254c0 .389-.073.754-.218 1.094-.146.34-.346.632-.598.875-.253.243-.55.437-.89.583a2.67 2.67 0 0 1-1.064.219c-.389 0-.749-.073-1.08-.219a3.009 3.009 0 0 1-.875-.583 2.658 2.658 0 0 1-.598-.875 2.76 2.76 0 0 1-.218-1.094c0-.389.073-.753.218-1.094.146-.34.346-.632.598-.875.253-.243.545-.437.875-.583a2.646 2.646 0 0 1 1.08-.219c.369 0 .724.073 1.064.219.34.146.637.34.89.583.252.243.452.535.598.875.145.341.218.705.218 1.094ZM140.987 351.71c0-.37.073-.725.218-1.065.146-.34.346-.632.598-.875.253-.243.545-.438.875-.583a2.646 2.646 0 0 1 1.08-.219 2.64 2.64 0 0 1 1.939.802c.535.535.802 1.181.802 1.94 0 .388-.073.748-.219 1.079-.145.33-.34.622-.583.875a2.643 2.643 0 0 1-.875.598c-.34.145-.695.218-1.064.218-.389 0-.749-.073-1.08-.218a2.866 2.866 0 0 1-1.473-1.473 2.66 2.66 0 0 1-.218-1.079Zm-10.5 4.316h3.412v-2.975c0-.836.282-1.541.846-2.114.564-.574 1.264-.861 2.1-.861h2.742v3.5h-1.225c-.525 0-.788.292-.788.875v1.575h8.021v14.467h-3.675v-10.967h-4.346v10.967h-3.675v-10.967h-3.412v-3.5ZM160.295 368.393h-.525c-.156.33-.345.646-.569.948a3.314 3.314 0 0 1-.875.802 4.558 4.558 0 0 1-1.283.554c-.496.136-1.094.204-1.794.204-.894 0-1.726-.16-2.494-.481a5.617 5.617 0 0 1-2.012-1.429c-.574-.632-1.021-1.405-1.342-2.319-.321-.914-.481-1.964-.481-3.15v-.525c0-1.167.17-2.207.51-3.121.341-.914.807-1.687 1.4-2.319a6.001 6.001 0 0 1 2.071-1.443 6.373 6.373 0 0 1 2.494-.496c1.167 0 2.09.219 2.771.656.68.438 1.215 1.055 1.604 1.852h.525v-8.05h3.675v20.417h-3.675v-2.1Zm-3.85-.992c1.147 0 2.076-.364 2.785-1.094.71-.729 1.065-1.686 1.065-2.872v-.35c0-1.187-.355-2.144-1.065-2.873-.709-.73-1.638-1.094-2.785-1.094-1.147 0-2.076.355-2.785 1.064-.71.71-1.065 1.678-1.065 2.903v.35c0 1.225.355 2.192 1.065 2.902.709.709 1.638 1.064 2.785 1.064ZM178.145 368.393h-.525c-.156.33-.345.646-.569.948a3.314 3.314 0 0 1-.875.802 4.558 4.558 0 0 1-1.283.554c-.496.136-1.094.204-1.794.204-.894 0-1.726-.16-2.494-.481a5.617 5.617 0 0 1-2.012-1.429c-.574-.632-1.021-1.405-1.342-2.319-.321-.914-.481-1.964-.481-3.15v-.525c0-1.167.17-2.207.51-3.121.341-.914.807-1.687 1.4-2.319a6.001 6.001 0 0 1 2.071-1.443 6.373 6.373 0 0 1 2.494-.496c1.167 0 2.09.219 2.771.656.68.438 1.215 1.055 1.604 1.852h.525v-8.05h3.675v20.417h-3.675v-2.1Zm-3.85-.992c1.147 0 2.076-.364 2.785-1.094.71-.729 1.065-1.686 1.065-2.872v-.35c0-1.187-.355-2.144-1.065-2.873-.709-.73-1.638-1.094-2.785-1.094-1.147 0-2.076.355-2.785 1.064-.71.71-1.065 1.678-1.065 2.903v.35c0 1.225.355 2.192 1.065 2.902.709.709 1.638 1.064 2.785 1.064ZM185.524 366.993h5.075v-13.417h-4.9v-3.5h8.575v16.917h4.725v3.5h-13.475v-3.5ZM206.699 364.455c.02.428.122.822.306 1.182.185.359.438.67.759.933.321.262.69.467 1.108.612.418.146.861.219 1.327.219.914 0 1.614-.16 2.1-.481.486-.321.836-.705 1.05-1.152l3.15 1.75a6.266 6.266 0 0 1-.729 1.152 5.126 5.126 0 0 1-1.21 1.094c-.496.33-1.099.603-1.809.816-.709.214-1.541.321-2.493.321-1.089 0-2.081-.175-2.975-.525a6.57 6.57 0 0 1-2.319-1.516c-.652-.662-1.157-1.468-1.517-2.421-.36-.953-.539-2.032-.539-3.238v-.175c0-1.108.189-2.119.568-3.033.379-.914.9-1.692 1.561-2.333a7.174 7.174 0 0 1 2.318-1.503 7.493 7.493 0 0 1 2.844-.539c1.245 0 2.314.219 3.209.656.894.438 1.633.992 2.216 1.663a6.536 6.536 0 0 1 1.284 2.216c.272.807.408 1.59.408 2.348v1.954h-10.617Zm3.471-5.512c-.933 0-1.692.238-2.275.714-.583.477-.962 1.026-1.137 1.648h6.825c-.117-.68-.482-1.244-1.094-1.691-.613-.447-1.386-.671-2.319-.671Z" style="fill:#f2f2f2;fill-rule:nonzero" transform="matrix(1 0 0 1 -27.252 -309.378)"/></svg>